<?xml version="1.0" encoding="utf-8" ?>
<svg baseProfile="full" height="300mm" version="1.1" viewBox="0,0,200,300" width="200mm" xmlns="http://www.w3.org/2000/svg" xmlns:ev="http://www.w3.org/2001/xml-events" xmlns:xlink="http://www.w3.org/1999/xlink"><defs /><rect fill="#222222" height="300" width="200" x="0" y="0" /><g id="header"><text fill="#FFFFFF" style="font-size:12px; font-family:Arial; font-weight:bold;" x="10" y="20">My Activities 2025</text></g><g id="footer"><text fill="#FFFFFF" style="font-size:4px; font-family:Arial" x="10" y="280">ATHLETE</text><text fill="#FFFFFF" style="font-size:9px; font-family:Arial" x="10" y="290">kohath</text><text fill="#FFFFFF" style="font-size:4px; font-family:Arial" x="120" y="280">STATISTICS</text><text fill="#FFFFFF" style="font-size:3px; font-family:Arial" x="120" y="285">Number: 58</text><text fill="#FFFFFF" style="font-size:3px; font-family:Arial" x="120" y="290">Weekly: 2.6</text><text fill="#FFFFFF" style="font-size:3px; font-family:Arial" x="141" y="285">Total: 242.4 km</text><text fill="#FFFFFF" style="font-size:3px; font-family:Arial" x="141" y="290">Avg: 4.2 km</text><text fill="#FFFFFF" style="font-size:3px; font-family:Arial" x="167" y="285">Min: 1.0 km</text><text fill="#FFFFFF" style="font-size:3px; font-family:Arial" x="167" y="290">Max: 20.4 km</text></g><g id="tracks"><g id="year2025"><text alignment-baseline="middle" fill="#FFFFFF" style="dominant-baseline: central; font-size:9.0px; font-family:Arial;" text-anchor="middle" x="100.0" y="150.0">2025</text><line stroke="#FFFFFF" stroke-width="0.3" x1="100.0" x2="100.0" y1="65.0" y2="60.0" /><path d="M 100.0 64.0 a86.0,86.0 0 0,1 42.46469731375804,11.215312516191453" fill="none" id="id1" stroke="none" /><text fill="#FFFFFF" style="font-size:6.75px; font-family:Arial;" text-anchor="middle"><textPath startOffset="22.20632615414155" xlink:href="#id1">January</textPath></text><path d="M 104.307194497241 129.44645832069477 l 1.882776624701367 -8.984439373102187 a30.179596868461637,30.179596868461637 0 0,0 0.5075306769624109,0.11092654815016065 l -2.037150025817306 8.950699326856157" fill="#50fff2" stroke="none"><title>2025-01-13 3.0 km</title></path><path d="M 105.36241919743992 129.69619591428918 l 3.052854330678131 -11.559065777978471 a32.955413887606454,32.955413887606454 0 0,0 0.5472201135292668,0.149575928387094 l -3.251372333431109 11.504803308765084" fill="#51ffd8" stroke="none"><title>2025-01-16 3.9 km</title></path><line stroke="#FFFFFF" stroke-width="0.3" x1="143.23703022742887" x2="145.7803849466894" y1="76.81831364943548" y2="72.5135085699905" /><path d="M 143.74570117128098 75.95735263354649 a86.0,86.0 0 0,1 28.547481713284135,27.462654790039103" fill="none" id="id2" stroke="none" /><text fill="#FFFFFF" style="font-size:6.75px; font-family:Arial;" text-anchor="middle"><textPath startOffset="19.985693538727396" xlink:href="#id2">February</textPath></text><line stroke="#FFFFFF" stroke-width="0.3" x1="172.23445277983987" x2="176.4835382374775" y1="105.19839476539836" y2="102.56300622218649" /><path d="M 173.08426987136738 104.67131705675598 a86.0,86.0 0 0,1 12.851231095245387,41.99856678651699" fill="none" id="id3" stroke="none" /><text fill="#FFFFFF" style="font-size:6.75px; font-family:Arial;" text-anchor="middle"><textPath startOffset="22.20632615414155" xlink:href="#id3">March</textPath></text><path d="M 118.56541770881063 140.18545643968196 l 15.102923447066551 -7.984108000383874 a38.08345038947772,38.08345038947772 0 0,0 0.3013862003545662,0.5821822097841544 l -15.238119080581233 7.7229530683393754" fill="#54ffa9" stroke="none"><title>2025-03-05 5.5 km</title></path><path d="M 118.89224826269711 140.83032412892265 l 15.150839687073248 -7.353719217179223 a37.84117363928372,37.84117363928372 0 0,0 0.2793792337229653,0.5884439168081597 l -15.275177114637968 7.091832884730523" fill="#54ffab" stroke="none"><title>2025-03-07 5.4 km</title></path><line stroke="#FFFFFF" stroke-width="0.3" x1="184.98032266829074" x2="189.97916517819016" y1="148.1711317179211" y2="148.06355123074" /><path d="M 185.9800911702706 148.1496156204849 a86.0,86.0 0 0,1 -9.607161424134198,41.387399972396054" fill="none" id="id4" stroke="none" /><text fill="#FFFFFF" style="font-size:6.75px; font-family:Arial;" text-anchor="middle"><textPath startOffset="21.466115282336823" xlink:href="#id4">April</textPath></text><path d="M 120.89721153311464 152.0752229133903 l 9.391767622512054 0.932660864182258 a30.437963517774527,30.437963517774527 0 0,0 -0.05626341384547399,0.5209293353630808 l -9.374321907165529 -1.0941865214301303" fill="#50ffef" stroke="none"><title>2025-04-08 3.1 km</title></path><path d="M 120.8583938346157 152.43462659150552 l 9.273208802862289 1.0823844308934276 a30.33616396373388,30.33616396373388 0 0,0 -0.06500388540991325,0.5181449246103749 l -9.253203408205527 -1.2418471097911974" fill="#50fff0" stroke="none"><title>2025-04-09 3.0 km</title></path><path d="M 120.81339534386255 152.79330883721812 l 9.238176497822003 1.2398303892668951 a30.3210023280257,30.3210023280257 0 0,0 -0.07387632658291785,0.516690856056026 l -9.215466120222484 -1.3986667173033305" fill="#50fff1" stroke="none"><title>2025-04-10 3.0 km</title></path><path d="M 120.64145759157962 153.86396538481128 l 9.160948264530072 1.7148782652166528 a30.320074064614992,30.320074064614992 0 0,0 -0.10044617070752825,0.5121728604145422 l -9.130072160846881 -1.87231485269914" fill="#50fff1" stroke="none"><title>2025-04-13 3.0 km</title></path><path d="M 120.41448212921028 154.9243191809786 l 9.006672274809343 2.1725620448715994 a30.264997102246497,30.264997102246497 0 0,0 -0.12652020564142913,0.5053853297369681 l -8.967940754872853 -2.327275214005964" fill="#50fff1" stroke="none"><title>2025-04-16 3.0 km</title></path><path d="M 119.26925614724726 158.34839909993366 l 7.4023562115708375 3.2070684753907637 a29.067227881300155,29.067227881300155 0 0,0 -0.20286006610248816,0.4573958955677031 l -7.3460550607370765 -3.3340127074511545" fill="#4ffffc" stroke="none"><title>2025-04-26 2.6 km</title></path><path d="M 118.97047184881838 159.00673069616215 l 16.679920097242533 7.919230978892278 a39.46439692346984,39.46439692346984 0 0,0 -0.29663459685876203,0.6111551297944 l -16.54113224376906 -8.205175064651954" fill="#55ff9c" stroke="none"><title>2025-04-28 6.0 km</title></path><path d="M 118.81262510543309 159.33194174019687 l 8.519761380911046 4.22620003329997 a30.510368063809516,30.510368063809516 0 0,0 -0.23743071115706124,0.4684733181702857 l -8.445751999967715 -4.372227563172951" fill="#50ffef" stroke="none"><title>2025-04-29 3.1 km</title></path><line stroke="#FFFFFF" stroke-width="0.3" x1="174.80103733775053" x2="179.2010983576182" y1="190.37084112569926" y2="192.7455964860345" /><path d="M 175.68104954172406 190.8457921977663 a86.0,86.0 0 0,1 -30.038265399797805,32.042727171017184" fill="none" id="id5" stroke="none" /><text fill="#FFFFFF" style="font-size:6.75px; font-family:Arial;" text-anchor="middle"><textPath startOffset="22.206326154141568" xlink:href="#id5">May</textPath></text><path d="M 118.12598468904814 160.60418214915194 l 35.03188440926725 20.494582207628106 a61.58646110625424,61.58646110625424 0 0,0 -0.5431900188069333,0.9104177157519264 l -34.673913514762084 -21.09456201726614" fill="#dcff60" stroke="none"><title>2025-05-03 13.1 km</title></path><path d="M 116.498646956653 162.99209946851258 l 2.473751727811081 1.9479917712383326 a24.148669489111324,24.148669489111324 0 0,0 -0.2599800771045491,0.32436511995221134 l -2.439853738651678 -1.9902847247687943" fill="#4dd2ff" stroke="none"><title>2025-05-11 1.0 km</title></path><line stroke="#FFFFFF" stroke-width="0.3" x1="143.8653032363475" x2="146.44561519142675" y1="222.8068346515853" y2="227.08958963109032" /><path d="M 144.38136562736335 223.6633856474863 a86.0,86.0 0 0,1 -40.68145358897372,12.25698825130547" fill="none" id="id6" stroke="none" /><text fill="#FFFFFF" style="font-size:6.75px; font-family:Arial;" text-anchor="middle"><textPath startOffset="21.466115282336833" xlink:href="#id6">June</textPath></text><path d="M 100.90346689309514 170.98055641714683 l 0.4017025573810058 9.328447154462385 a30.337092227144584,30.337092227144584 0 0,0 -0.5219130481445922,0.017975740654692547 l -0.24106915756176134 -9.333979693543172" fill="#50fff0" stroke="none"><title>2025-06-30 3.0 km</title></path><line stroke="#FFFFFF" stroke-width="0.3" x1="102.19456741930631" x2="102.32365962044197" y1="234.97166512339345" y2="239.96999836594603" /><path d="M 102.22038585953345 235.97133177190398 a86.0,86.0 0 0,1 -42.740103519485714,-10.115201625700543" fill="none" id="id7" stroke="none" /><text fill="#FFFFFF" style="font-size:6.75px; font-family:Arial;" text-anchor="middle"><textPath startOffset="22.20632615414155" xlink:href="#id7">July</textPath></text><path d="M 100.54218724476979 170.99299961872075 l 0.23759404212103477 9.199426367499585 a30.202494032592362,30.202494032592362 0 0,0 -0.519828514721668,0.008949319302088131 l -0.07920583750669877 -9.202153164080833" fill="#50fff2" stroke="none"><title>2025-07-01 3.0 km</title></path><path d="M 99.81925306533755 170.99922214144158 l -0.08027377539849777 9.326226444024222 a30.326571908489925,30.326571908489925 0 0,0 -0.5219640740522334,-0.008986084892656045 l 0.24079753934339918 -9.323462881852405" fill="#50fff0" stroke="none"><title>2025-07-03 3.0 km</title></path><path d="M 99.45781275523022 170.99299961872075 l -0.16205222233364913 6.274515445503817 a27.276607762050233,27.276607762050233 0 0,0 -0.4692611076086767,-0.016162301363598378 l 0.27003368161696883 -6.270796345714125" fill="#4ff0ff" stroke="none"><title>2025-07-04 2.0 km</title></path><path d="M 98.73552117531835 170.96189622390904 l -0.5752029127981966 9.535425608097164 a30.552758759565044,30.552758759565044 0 0,0 -0.5246886937922333,-0.036185604283092976 l 0.7392543673693599 -9.524111659297786" fill="#50ffee" stroke="none"><title>2025-07-06 3.1 km</title></path><path d="M 98.37488393609728 170.93702456842533 l -0.7381528967996389 9.50992097046522 a30.538525387267565,30.538525387267565 0 0,0 -0.5237439736199333,-0.045190833843636175 l 0.9017411881611139 -9.495805884342921" fill="#50ffee" stroke="none"><title>2025-07-07 3.1 km</title></path><path d="M 98.01472825383883 170.90594882070397 l -0.9159282474357155 9.645203031451182 a30.688594638664874,30.688594638664874 0 0,0 -0.5254580137165827,-0.05446587158991405 l 1.0818188577578918 -9.628007791405507" fill="#50ffed" stroke="none"><title>2025-07-08 3.1 km</title></path><path d="M 97.65516085044442 170.86867818915974 l -1.0431232419975174 9.283623251089521 a30.34204296533501,30.34204296533501 0 0,0 -0.518520340421678,-0.0627855921167328 l 1.202771005470585 -9.264292130247439" fill="#50fff0" stroke="none"><title>2025-07-09 3.0 km</title></path><path d="M 96.58105272829116 170.7198165907248 l -1.5363651448274076 9.310820403876974 a30.43672583322692,30.43672583322692 0 0,0 -0.5161938671679521,-0.08974692041713445 l 1.6964079834674097 -9.282994904938832" fill="#50ffef" stroke="none"><title>2025-07-12 3.0 km</title></path><path d="M 95.86986931433489 170.5898523675943 l -1.8367180390766098 9.15655124346135 a30.338948753965994,30.338948753965994 0 0,0 -0.5111513866861636,-0.10711674291193019 l 1.9940608871921603 -9.123578519822876" fill="#50fff0" stroke="none"><title>2025-07-14 3.0 km</title></path><path d="M 95.16358092515715 170.4354850818985 l -2.166632892225996 9.154747233824772 a30.407640246358163,30.407640246358163 0 0,0 -0.5083096298663898,-0.12493013990930679 l 2.3238958068355964 -9.116095835601435" fill="#50fff0" stroke="none"><title>2025-07-16 3.0 km</title></path><path d="M 94.81253420990036 170.34920634021253 l -2.322214261389261 9.109499528918654 a30.400832981346326,30.400832981346326 0 0,0 -0.5059705558796299,-0.13363142250263108 l 2.4786752600803803 -9.068176757112441" fill="#50fff0" stroke="none"><title>2025-07-17 3.0 km</title></path><path d="M 94.11515582081647 170.15858648285464 l -2.6243434956804164 8.989712166980517 a30.364940129465733,30.364940129465733 0 0,0 -0.5004793180205587,-0.15079031302514645 l 2.778697788141221 -8.943206484849645" fill="#50fff0" stroke="none"><title>2025-07-19 3.0 km</title></path><path d="M 93.42475214034765 169.94407469862006 l -2.9500549688085926 8.948121488163133 a30.42187361865564,30.42187361865564 0 0,0 -0.49592038668687377,-0.1682431207158788 l 3.103645088432692 -8.896015380549132" fill="#50fff0" stroke="none"><title>2025-07-21 3.0 km</title></path><path d="M 93.08242187328487 169.82793768551818 l -3.0822406395469493 8.834663550338448 a30.35689517990629,30.35689517990629 0 0,0 -0.49189798236837357,-0.17637711558536281 l 3.2338581825450494 -8.780298893713127" fill="#50fff0" stroke="none"><title>2025-07-22 3.0 km</title></path><path d="M 92.40401165467489 169.57807347666477 l -3.330011511032949 8.582847560747828 a30.20620708623518,30.20620708623518 0 0,0 -0.4831251587134035,-0.19224547121900787 l 3.477257745788211 -8.524255245122752" fill="#50fff2" stroke="none"><title>2025-07-24 3.0 km</title></path><path d="M 91.07499286063937 169.00905698771936 l -4.056243605987722 8.639249768467577 a30.544094967731795,30.544094967731795 0 0,0 -0.4739968389229213,-0.2275472874234703 l 4.204353112910885 -8.568148204544546" fill="#50ffee" stroke="none"><title>2025-07-28 3.1 km</title></path><path d="M 90.7491055286396 168.85261126421892 l -4.143015492524764 8.443146852881553 a30.404855456126047,30.404855456126047 0 0,0 -0.4678671537198872,-0.2345983036379376 l 4.287736553927412 -8.370580708334312" fill="#50fff0" stroke="none"><title>2025-07-29 3.0 km</title></path><path d="M 90.42595943632237 168.69057910512822 l -4.264178336967192 8.324590019790413 a30.35318212626347,30.35318212626347 0 0,0 -0.4629714463005884,-0.24220477932260984 l 4.406840685794276 -8.249955821523086" fill="#50fff0" stroke="none"><title>2025-07-30 3.0 km</title></path><line stroke="#FFFFFF" stroke-width="0.3" x1="58.666819895761336" x2="56.23545636021788" y1="224.27360380694188" y2="228.64263932499728" /><path d="M 58.180547188652646 225.14741091055294 a86.0,86.0 0 0,1 -31.652253787137756,-30.449443065178592" fill="none" id="id8" stroke="none" /><text fill="#FFFFFF" style="font-size:6.75px; font-family:Arial;" text-anchor="middle"><textPath startOffset="22.20632615414155" xlink:href="#id8">August</textPath></text><path d="M 88.54995079064634 167.60387380957326 l -5.0823561058875395 7.813866465331 a30.3213117491626,30.3213117491626 0 0,0 -0.4350751617817122,-0.288344093305468 l 5.216105966409214 -7.725224350934214" fill="#50fff1" stroke="none"><title>2025-08-05 3.0 km</title></path><path d="M 88.24862548938628 167.40417183066458 l -5.345101782010038 7.916271392973914 a30.551830496154338,30.551830496154338 0 0,0 -0.4333167797832379,-0.2980392323282575 l 5.480575446416166 -7.823091371280555" fill="#50ffee" stroke="none"><title>2025-08-06 3.1 km</title></path><path d="M 87.95078237400918 167.19931262002967 l -5.447908589203968 7.776461996084066 a30.494897006964433,30.494897006964433 0 0,0 -0.42732451567678115,-0.30488469576579647 l 5.580960432729636 -7.681533038474051" fill="#50ffef" stroke="none"><title>2025-08-07 3.1 km</title></path><path d="M 87.36589467227662 166.77436683061367 l -5.667122803235895 7.524268185972494 a30.419707670697328,30.419707670697328 0 0,0 -0.4155495342071132,-0.3186256628888421 l 5.795801065936495 -7.425603181256284" fill="#50fff0" stroke="none"><title>2025-08-09 3.0 km</title></path><path d="M 86.51685102203217 166.09983520530335 l -7.9642931845488745 9.509930358811713 a33.40438395725077,33.40438395725077 0 0,0 -0.4376523457292956,-0.37297682369538243 l 8.126811006855228 -9.37142914489338" fill="#52ffd4" stroke="none"><title>2025-08-12 4.0 km</title></path><path d="M 85.97065885151581 165.6261827372986 l -8.525054148276132 9.495389167346707 a33.76083710696149,33.76083710696149 0 0,0 -0.4290848873440073,-0.39195887108426414 l 8.687238585086995 -9.347237529675866" fill="#52ffd0" stroke="none"><title>2025-08-14 4.1 km</title></path><path d="M 85.70375840098266 165.38237550388516 l -6.58731177791131 7.087772169152628 a30.676217793188805,30.676217793188805 0 0,0 -0.38369253098540534,-0.36280523692696565 l 6.708340143287533 -6.973332295479731" fill="#50ffed" stroke="none"><title>2025-08-15 3.1 km</title></path><path d="M 85.18274418774928 164.88116024355367 l -8.78224019385869 8.820116577466127 a33.446774653006294,33.446774653006294 0 0,0 -0.4044819992755196,-0.4097381297701155 l 8.932762818189744 -8.667637953715348" fill="#52ffd3" stroke="none"><title>2025-08-17 4.0 km</title></path><path d="M 84.67929136418377 164.36230785411684 l -6.897953308615217 6.466445602264881 a30.454981680304115,30.454981680304115 0 0,0 -0.355240817000703,-0.3855437459408048 l 7.008240533611649 -6.346750601522731" fill="#50ffef" stroke="none"><title>2025-08-19 3.1 km</title></path><path d="M 84.19399662182784 163.82643327865904 l -7.258514591232457 6.349446175397081 a30.64372857381413,30.64372857381413 0 0,0 -0.34387734157615507,-0.4000070366266967 l 7.366734442379391 -6.223562039608854" fill="#50ffed" stroke="none"><title>2025-08-21 3.1 km</title></path><path d="M 83.06392112726016 162.41649034213515 l -10.038323695967293 7.359480914016343 a33.4470840741432,33.4470840741432 0 0,0 -0.3364142877414781,-0.46725002204781174 l 10.163517776084378 -7.185597286517393" fill="#52ffd3" stroke="none"><title>2025-08-26 4.0 km</title></path><line stroke="#FFFFFF" stroke-width="0.3" x1="26.63291911575756" x2="22.317208475507996" y1="192.92168965132927" y2="195.44649492493687" /><path d="M 25.769776987707644 193.4266507060508 a86.0,86.0 0 0,1 -11.730757126820373,-40.83630448921669" fill="none" id="id9" stroke="none" /><text fill="#FFFFFF" style="font-size:6.75px; font-family:Arial;" text-anchor="middle"><textPath startOffset="21.46611528233685" xlink:href="#id9">September</textPath></text><path d="M 81.51974371655577 159.97397251340806 l -8.358348185366898 4.511081111630905 a30.497991218333446,30.497991218333446 0 0,0 -0.24535995811985173,-0.46412857444831196 l 8.434760651711636 -4.3665375220964675" fill="#50ffef" stroke="none"><title>2025-09-03 3.1 km</title></path><path d="M 81.35079622478065 159.6543875284942 l -8.393268312044956 4.345057617032728 a30.451268626661296,30.451268626661296 0 0,0 -0.23697080122212916,-0.4675658722370047 l 8.46681778305335 -4.199937533093038" fill="#50ffef" stroke="none"><title>2025-09-04 3.1 km</title></path><path d="M 81.02952815118164 159.00673069616215 l -11.407663287338906 5.416088325075444 a33.62809543923067,33.62809543923067 0 0,0 -0.24376427205636977,-0.5250465557217207 l 11.499202176235103 -5.218921702074896" fill="#52ffd2" stroke="none"><title>2025-09-06 4.1 km</title></path><path d="M 80.87730276802145 158.678850763441 l -11.389879172109374 5.169305373044095 a33.508040038112824,33.508040038112824 0 0,0 -0.23385247622698374,-0.5272755986411302 l 11.477172733067638 -4.972481437910269" fill="#52ffd3" stroke="none"><title>2025-09-07 4.0 km</title></path><path d="M 80.58989483394504 158.01547362559984 l -13.373988210763352 5.522837143609603 a35.469460624932466,35.469460624932466 0 0,0 -0.22818244781566174,-0.5663301223721229 l 13.467073272836402 -5.291807653394676" fill="#53ffc1" stroke="none"><title>2025-09-09 4.7 km</title></path><path d="M 80.32549172779594 157.3425965602758 l -13.642555236066645 5.0914502036748415 a35.56166812372916,35.56166812372916 0 0,0 -0.20909539292687682,-0.5753407184368726 l 13.728174889998746 -4.855861688231852" fill="#53ffc0" stroke="none"><title>2025-09-11 4.7 km</title></path><path d="M 79.86692584326677 155.9715429329011 l -9.131701744055466 2.708495910289882 a30.524910857243896,30.524910857243896 0 0,0 -0.14507670771182124,-0.5050310518208565 l 9.17697108865339 -2.550907382964429" fill="#50ffef" stroke="none"><title>2025-09-15 3.1 km</title></path><path d="M 79.76711848015287 155.62410040840567 l -9.152823518300243 2.5441951230151023 a30.49984774515486,30.49984774515486 0 0,0 -0.13624997086933127,-0.507036827838055 l 9.195261565511348 -2.3862673620015085" fill="#50ffef" stroke="none"><title>2025-09-16 3.1 km</title></path><path d="M 79.67330655649465 155.2749913415812 l -13.773424821664252 3.5743490145177956 a35.22965924383368,35.22965924383368 0 0,0 -0.14727454680233815,-0.5882886059204192 l 13.83291068276165 -3.3367325691999845" fill="#53ffc3" stroke="none"><title>2025-09-17 4.6 km</title></path><path d="M 79.35854240842038 153.8639653848113 l -15.327655445952061 2.8692513506232853 a36.59389703643311,36.59389703643311 0 0,0 -0.11057204550643332,-0.6201467520412365 l 15.374773933797684 -2.6049858478488352" fill="#53ffb6" stroke="none"><title>2025-09-21 5.0 km</title></path><line stroke="#FFFFFF" stroke-width="0.3" x1="15.007084014347285" x2="10.007500721073583" y1="151.09737516637583" y2="151.16192664675089" /><path d="M 14.007167355692545 151.11028546245083 a86.0,86.0 0 0,1 10.666146001902534,-42.60595125391555" fill="none" id="id10" stroke="none" /><text fill="#FFFFFF" style="font-size:6.75px; font-family:Arial;" text-anchor="middle"><textPath startOffset="22.20632615414155" xlink:href="#id10">October</textPath></text><path d="M 79.01574976396665 149.18683210126434 l -49.89940635972837 -1.933669059474913 a70.9368584422856,70.9368584422856 0 0,0 0.057784461485646435,-1.2197386530745316 l 49.858728290009225 2.7923188191724537" fill="#ffd264" stroke="none"><title>2025-10-04 16.1 km</title></path><path d="M 80.65960295795068 141.81776055985347 l -58.02119112614798 -24.546718320439627 a84.0,84.0 0 0,0 0.574837160629277,-1.3268034216536029 l 57.59006325567602 25.54182088667983" fill="#ff6b6b" stroke="none"><title>2025-10-25 20.4 km</title></path><line stroke="#FFFFFF" stroke-width="0.3" x1="26.266209847984243" x2="21.928928074336255" y1="107.71137044288967" y2="105.22380399835377" /><path d="M 25.398753493254645 107.2138571539825 a86.0,86.0 0 0,1 29.58750427330803,-30.492523968695096" fill="none" id="id11" stroke="none" /><text fill="#FFFFFF" style="font-size:6.75px; font-family:Arial;" text-anchor="middle"><textPath startOffset="21.46611528233685" xlink:href="#id11">November</textPath></text><path d="M 81.78341655067845 139.5522209329492 l -35.90780036713411 -20.59424403391925 a62.394359694704484,62.394359694704484 0 0,0 0.5423565109469995,-0.9270630846544924 l 35.547984181716785 21.209286530927635" fill="#e3ff60" stroke="none"><title>2025-11-01 13.4 km</title></path><line stroke="#FFFFFF" stroke-width="0.3" x1="56.762969772571076" x2="54.21961505331055" y1="76.8183136494355" y2="72.51350856999053" /><path d="M 56.25429882871897 75.9573526335465 a86.0,86.0 0 0,1 42.265352541879196,-11.944610805530505" fill="none" id="id12" stroke="none" /><text fill="#FFFFFF" style="font-size:6.75px; font-family:Arial;" text-anchor="middle"><textPath startOffset="22.20632615414155" xlink:href="#id12">December</textPath></text></g></g></svg>